<svg width="441" height="426" viewBox="0 0 441 426" fill="none" xmlns="http://www.w3.org/2000/svg">
<mask id="mask0" mask-type="alpha" maskUnits="userSpaceOnUse" x="0" y="0" width="441" height="426">
<path fill-rule="evenodd" clip-rule="evenodd" d="M236.435 8.30634C192.641 -15.9892 138.91 15.9478 139.323 66.0279L139.774 120.663C131.161 121.657 122.503 124.434 114.249 129.251L32.4347 176.992C12.2697 188.759 -0.092143 210.384 0.000528897 233.731L0.362112 324.824C0.56151 375.058 54.9762 406.317 98.471 381.183L156.917 347.41C162.336 356.341 170.089 364.185 180.175 370.009L261.136 416.751C281.659 428.6 306.986 428.418 327.337 416.276L408.15 368.06C451.022 342.481 450.575 280.234 407.341 255.272L348.474 221.286C349.826 216.171 350.585 210.758 350.657 205.098L351.847 111.672C352.153 87.6129 339.223 65.3294 318.183 53.6571L236.435 8.30634Z" fill="#84B8F5"/>
</mask>
<g mask="url(#mask0)">
<path d="M212.596 185.191C212.182 134.959 157.636 103.934 114.249 129.251L32.4354 176.992C12.2704 188.759 -0.0914369 210.384 0.00122568 233.731L0.362815 324.824C0.562222 375.058 54.9769 406.317 98.4717 381.183L180.678 333.68C201.065 321.899 213.544 300.067 213.35 276.522L212.596 185.191Z" fill="#EB5A4D"/>
<path d="M212.596 185.191C212.182 134.959 157.636 103.934 114.249 129.251L32.4354 176.992C12.2704 188.759 -0.0914369 210.384 0.00122568 233.731L0.362815 324.824C0.562222 375.058 54.9769 406.317 98.4717 381.183L180.678 333.68C201.065 321.899 213.544 300.067 213.35 276.522L212.596 185.191Z" fill="#EB5A4D"/>
<path d="M236.436 8.30631C192.642 -15.9892 138.91 15.9478 139.323 66.0279L140.089 158.737C140.28 181.906 152.717 203.244 172.782 214.829L252.575 260.897C295.85 285.882 350.021 255.064 350.658 205.098L351.847 111.672C352.154 87.6129 339.223 65.3293 318.183 53.6571L236.436 8.30631Z" fill="#5C63AB"/>
<path d="M236.436 8.30631C192.642 -15.9892 138.91 15.9478 139.323 66.0279L140.089 158.737C140.28 181.906 152.717 203.244 172.782 214.829L252.575 260.897C295.85 285.882 350.021 255.064 350.658 205.098L351.847 111.672C352.154 87.6129 339.223 65.3293 318.183 53.6571L236.436 8.30631Z" fill="#5C63AB"/>
<path d="M407.342 255.272C450.576 280.234 451.023 342.481 408.151 368.06L327.338 416.276C306.987 428.418 281.66 428.6 261.137 416.751L180.176 370.008C136.591 344.845 136.579 281.939 180.155 256.759L262.282 209.301C282.518 197.608 307.455 197.603 327.695 209.289L407.342 255.272Z" fill="#84B8F5"/>
<path d="M407.342 255.272C450.576 280.234 451.023 342.481 408.151 368.06L327.338 416.276C306.987 428.418 281.66 428.6 261.137 416.751L180.176 370.008C136.591 344.845 136.579 281.939 180.155 256.759L262.282 209.301C282.518 197.608 307.455 197.603 327.695 209.289L407.342 255.272Z" fill="#84B8F5"/>
<path d="M407.342 255.272C450.576 280.234 451.023 342.481 408.151 368.06L327.338 416.276C306.987 428.418 281.66 428.6 261.137 416.751L180.176 370.008C136.591 344.845 136.579 281.939 180.155 256.759L262.282 209.301C282.518 197.608 307.455 197.603 327.695 209.289L407.342 255.272Z" fill="#84B8F5"/>
<path d="M407.342 255.272C450.576 280.234 451.023 342.481 408.151 368.06L327.338 416.276C306.987 428.418 281.66 428.6 261.137 416.751L180.176 370.008C136.591 344.845 136.579 281.939 180.155 256.759L262.282 209.301C282.518 197.608 307.455 197.603 327.695 209.289L407.342 255.272Z" fill="#84B8F5"/>
<g style="mix-blend-mode:screen" opacity="0.25">
<path d="M259.514 210.315C302.809 184.841 302.405 122.09 258.786 97.1746L176.534 50.192C156.262 38.612 131.353 38.7189 111.18 50.4726L32.4713 96.3326C-10.9329 121.622 -10.7964 184.376 32.7174 209.477L114.96 256.918C135.356 268.683 160.502 268.575 180.796 256.634L259.514 210.315Z" fill="#F2F8FF"/>
<path d="M259.514 210.315C302.809 184.841 302.405 122.09 258.786 97.1746L176.534 50.192C156.262 38.612 131.353 38.7189 111.18 50.4726L32.4713 96.3326C-10.9329 121.622 -10.7964 184.376 32.7174 209.477L114.96 256.918C135.356 268.683 160.502 268.575 180.796 256.634L259.514 210.315Z" fill="#F2F8FF"/>
</g>
<g style="mix-blend-mode:screen" opacity="0.25">
<path d="M423.681 142.368C422.824 92.293 368.3 61.7286 325.136 87.1266L245.23 134.144C225.261 145.894 213 167.333 213 190.503L213 282.64C213 332.609 266.775 364.114 310.365 339.683L391.869 293.999C412.858 282.235 425.691 259.896 425.279 235.838L423.681 142.368Z" fill="#F2F8FF"/>
<path d="M423.681 142.368C422.824 92.293 368.3 61.7286 325.136 87.1266L245.23 134.144C225.261 145.894 213 167.333 213 190.503L213 282.64C213 332.609 266.775 364.114 310.365 339.683L391.869 293.999C412.858 282.235 425.691 259.896 425.279 235.838L423.681 142.368Z" fill="#F2F8FF"/>
</g>
<g style="mix-blend-mode:screen" opacity="0.25">
<path d="M296.947 417.852C296.947 467.775 243.263 499.285 199.675 474.947L117.512 429.069C96.821 417.516 84 395.672 84 371.975L84 278.489C84 228.162 138.472 196.699 182.066 221.846L264.23 269.241C284.474 280.919 296.947 302.514 296.947 325.885L296.947 417.852Z" fill="#F2F8FF"/>
<path d="M296.947 417.852C296.947 467.775 243.263 499.285 199.675 474.947L117.512 429.069C96.821 417.516 84 395.672 84 371.975L84 278.489C84 228.162 138.472 196.699 182.066 221.846L264.23 269.241C284.474 280.919 296.947 302.514 296.947 325.885L296.947 417.852Z" fill="#F2F8FF"/>
<path d="M296.947 417.852C296.947 467.775 243.263 499.285 199.675 474.947L117.512 429.069C96.821 417.516 84 395.672 84 371.975L84 278.489C84 228.162 138.472 196.699 182.066 221.846L264.23 269.241C284.474 280.919 296.947 302.514 296.947 325.885L296.947 417.852Z" fill="#F2F8FF"/>
<path d="M296.947 417.852C296.947 467.775 243.263 499.285 199.675 474.947L117.512 429.069C96.821 417.516 84 395.672 84 371.975L84 278.489C84 228.162 138.472 196.699 182.066 221.846L264.23 269.241C284.474 280.919 296.947 302.514 296.947 325.885L296.947 417.852Z" fill="#F2F8FF"/>
</g>
</g>
</svg>
