<svg width="96" height="98" viewBox="0 0 96 98" fill="none" xmlns="http://www.w3.org/2000/svg">
<path fill-rule="evenodd" clip-rule="evenodd" d="M60.9537 1.38339C63.9101 2.09717 66.7382 3.27185 69.3304 4.86277L64.0996 13.3856C62.4001 12.3425 60.5452 11.5721 58.6068 11.1041L60.9537 1.38339ZM47.4123 1.37043C48.9054 1.01351 50.4075 0.778834 51.9061 0.661861L52.6843 10.6315C51.7038 10.7081 50.7189 10.8617 49.7372 11.0964L43.9249 12.4858L41.5999 2.75984L47.4123 1.37043ZM76.2267 10.7637C77.2013 11.9079 78.0951 13.1378 78.896 14.4475L82.0135 19.5461L73.482 24.7627L70.3645 19.6642C69.8379 18.803 69.2518 17.9968 68.614 17.2481L76.2267 10.7637ZM24.1628 6.92807L29.9752 5.53866L32.3001 15.2646L26.4878 16.654C25.5061 16.8887 24.5582 17.1971 23.6491 17.5722L19.8344 8.32837C21.2239 7.755 22.6697 7.28499 24.1628 6.92807ZM88.2486 29.7432L91.3661 34.8417C92.1669 36.1514 92.8543 37.5075 93.4286 38.8965L84.1874 42.7175C83.8116 41.8086 83.3611 40.9195 82.8346 40.0583L79.717 34.9598L88.2486 29.7432ZM6.19362 19.9552C7.78606 17.364 9.77718 15.0373 12.0913 13.0636L18.5805 20.6721C17.0634 21.9661 15.7574 23.4922 14.7134 25.191L6.19362 19.9552ZM95.5383 47.7243C95.773 50.7566 95.5298 53.8093 94.8177 56.7662L85.0956 54.4251C85.5625 52.4865 85.722 50.4843 85.5681 48.4962L95.5383 47.7243ZM1.99678 32.8298C2.11873 31.2994 2.35971 29.7983 2.71154 28.337L12.4337 30.6777C12.2035 31.6338 12.0454 32.618 11.9652 33.6241L11.4905 39.5814L1.52207 38.787L1.99678 32.8298ZM91.3367 65.1485C90.5496 66.429 89.6562 67.6591 88.658 68.8255L84.7724 73.366L77.1747 66.864L81.0603 62.3236C81.7166 61.5567 82.3022 60.7501 82.8172 59.9122L91.3367 65.1485ZM0.0979256 56.6587L0.57264 50.7015L10.541 51.4959L10.0663 57.4531C9.98615 58.4593 9.98648 59.456 10.0623 60.4366L0.0921469 61.208C-0.0238097 59.7094 -0.0240214 58.1891 0.0979256 56.6587ZM77.0011 82.4469L73.1155 86.9874C72.1173 88.1538 71.04 89.2266 69.8965 90.202L63.4069 82.5938C64.1551 81.9556 64.8615 81.2524 65.5178 80.4855L69.4034 75.945L77.0011 82.4469ZM6.93466 77.7741C4.96236 75.4589 3.36484 72.8462 2.20286 70.0355L11.4443 66.215C12.2061 68.0578 13.2539 69.7714 14.547 71.2893L6.93466 77.7741ZM62.1527 94.9363C59.3413 96.0967 56.3629 96.8086 53.3306 97.0452L52.5529 87.0755C54.5409 86.9204 56.4944 86.4534 58.3376 85.6927L62.1527 94.9363ZM17.8822 85.744C16.4645 85.1551 15.1113 84.462 13.8302 83.6759L19.0607 75.1528C19.8989 75.6672 20.786 76.1218 21.7181 76.5089L27.2371 78.8013L23.4012 88.0364L17.8822 85.744ZM44.283 96.3248C42.8219 95.9719 41.3759 95.5023 39.9581 94.9135L34.4392 92.6211L38.275 83.386L43.794 85.6784C44.7262 86.0656 45.6743 86.3733 46.6302 86.6041L44.283 96.3248Z" fill="#EEC54B"/>
</svg>
