<svg width="50" height="49" viewBox="0 0 50 49" fill="none" xmlns="http://www.w3.org/2000/svg">
<mask id="mask0" mask-type="alpha" maskUnits="userSpaceOnUse" x="0" y="0" width="50" height="49">
<path fill-rule="evenodd" clip-rule="evenodd" d="M26.6894 1.72937C21.7492 -1.01132 15.6879 2.59137 15.7345 8.24071L15.7854 14.4038C14.8138 14.5159 13.8371 14.8292 12.906 15.3725L3.67689 20.758C1.40216 22.0853 0.00766987 24.5248 0.0181248 27.1585L0.0589137 37.4344C0.0814088 43.1011 6.21972 46.6273 11.1262 43.792L17.7196 39.982C18.3309 40.9894 19.2055 41.8743 20.3433 42.5312L29.4761 47.804C31.7912 49.1406 34.6483 49.1201 36.944 47.7504L46.0602 42.3113C50.8964 39.4258 50.846 32.404 45.9689 29.5882L39.3282 25.7542C39.4806 25.1774 39.5662 24.5669 39.5743 23.9287L39.7085 13.3896C39.7431 10.6756 38.2844 8.16191 35.911 6.84521L26.6894 1.72937Z" fill="#84B8F5"/>
</mask>
<g mask="url(#mask0)">
<path d="M24.0002 21.6829C23.9534 16.0165 17.8003 12.5166 12.906 15.3726L3.6769 20.758C1.40217 22.0854 0.00767888 24.5248 0.0181338 27.1585L0.0589227 37.4344C0.0814178 43.1011 6.21973 46.6273 11.1262 43.7921L20.3996 38.4334C22.6994 37.1045 24.1071 34.6417 24.0852 31.9856L24.0002 21.6829Z" fill="#EB5A4D"/>
<path d="M24.0002 21.6829C23.9534 16.0165 17.8003 12.5166 12.906 15.3726L3.6769 20.758C1.40217 22.0854 0.00767888 24.5248 0.0181338 27.1585L0.0589227 37.4344C0.0814178 43.1011 6.21973 46.6273 11.1262 43.7921L20.3996 38.4334C22.6994 37.1045 24.1071 34.6417 24.0852 31.9856L24.0002 21.6829Z" fill="#EB5A4D"/>
<path d="M26.6894 1.72942C21.7492 -1.01126 15.6879 2.59142 15.7346 8.24077L15.8209 18.6989C15.8424 21.3125 17.2454 23.7196 19.5089 25.0264L28.51 30.2232C33.3917 33.0416 39.5026 29.5652 39.5743 23.9288L39.7085 13.3897C39.7431 10.6757 38.2845 8.16197 35.911 6.84527L26.6894 1.72942Z" fill="#5C63AB"/>
<path d="M26.6894 1.72942C21.7492 -1.01126 15.6879 2.59142 15.7346 8.24077L15.8209 18.6989C15.8424 21.3125 17.2454 23.7196 19.5089 25.0264L28.51 30.2232C33.3917 33.0416 39.5026 29.5652 39.5743 23.9288L39.7085 13.3897C39.7431 10.6757 38.2845 8.16197 35.911 6.84527L26.6894 1.72942Z" fill="#5C63AB"/>
<path d="M45.9694 29.5882C50.8465 32.404 50.8969 39.4258 46.0607 42.3113L36.9445 47.7504C34.6488 49.1201 31.7917 49.1406 29.4766 47.804L20.3438 42.5312C15.4271 39.6925 15.4258 32.5964 20.3413 29.7559L29.6058 24.4024C31.8885 23.0833 34.7016 23.0828 36.9848 24.401L45.9694 29.5882Z" fill="#84B8F5"/>
<path d="M45.9694 29.5882C50.8465 32.404 50.8969 39.4258 46.0607 42.3113L36.9445 47.7504C34.6488 49.1201 31.7917 49.1406 29.4766 47.804L20.3438 42.5312C15.4271 39.6925 15.4258 32.5964 20.3413 29.7559L29.6058 24.4024C31.8885 23.0833 34.7016 23.0828 36.9848 24.401L45.9694 29.5882Z" fill="#84B8F5"/>
<path d="M45.9694 29.5882C50.8465 32.404 50.8969 39.4258 46.0607 42.3113L36.9445 47.7504C34.6488 49.1201 31.7917 49.1406 29.4766 47.804L20.3438 42.5312C15.4271 39.6925 15.4258 32.5964 20.3413 29.7559L29.6058 24.4024C31.8885 23.0833 34.7016 23.0828 36.9848 24.401L45.9694 29.5882Z" fill="#84B8F5"/>
<path d="M45.9694 29.5882C50.8465 32.404 50.8969 39.4258 46.0607 42.3113L36.9445 47.7504C34.6488 49.1201 31.7917 49.1406 29.4766 47.804L20.3438 42.5312C15.4271 39.6925 15.4258 32.5964 20.3413 29.7559L29.6058 24.4024C31.8885 23.0833 34.7016 23.0828 36.9848 24.401L45.9694 29.5882Z" fill="#84B8F5"/>
<g style="mix-blend-mode:overlay" opacity="0.3">
<path d="M29.293 24.5174C34.1769 21.6437 34.1313 14.5651 29.2108 11.7545L19.9324 6.45453C17.6455 5.14824 14.8356 5.1603 12.56 6.48619L3.68116 11.6595C-1.2151 14.5123 -1.19971 21.5913 3.70892 24.4229L12.9863 29.7745C15.2871 31.1017 18.1238 31.0894 20.4131 29.7424L29.293 24.5174Z" fill="#F2F8FF"/>
<path d="M29.293 24.5174C34.1769 21.6437 34.1313 14.5651 29.2108 11.7545L19.9324 6.45453C17.6455 5.14824 14.8356 5.1603 12.56 6.48619L3.68116 11.6595C-1.2151 14.5123 -1.19971 21.5913 3.70892 24.4229L12.9863 29.7745C15.2871 31.1017 18.1238 31.0894 20.4131 29.7424L29.293 24.5174Z" fill="#F2F8FF"/>
</g>
<g style="mix-blend-mode:overlay" opacity="0.3">
<path d="M47.9181 16.8692C47.8214 11.2205 41.6708 7.77263 36.8016 10.6377L27.7877 15.9415C25.5351 17.267 24.152 19.6855 24.152 22.2992L24.152 32.6928C24.152 38.3296 30.2182 41.8836 35.1353 39.1275L44.3295 33.9742C46.6972 32.6471 48.1448 30.1271 48.0984 27.4133L47.9181 16.8692Z" fill="#F2F8FF"/>
<path d="M47.9181 16.8692C47.8214 11.2205 41.6708 7.77263 36.8016 10.6377L27.7877 15.9415C25.5351 17.267 24.152 19.6855 24.152 22.2992L24.152 32.6928C24.152 38.3296 30.2182 41.8836 35.1353 39.1275L44.3295 33.9742C46.6972 32.6471 48.1448 30.1271 48.0984 27.4133L47.9181 16.8692Z" fill="#F2F8FF"/>
</g>
<g style="mix-blend-mode:overlay" opacity="0.3">
<path d="M33.431 47.4953C33.431 53.1269 27.3751 56.6814 22.4581 53.9359L13.1896 48.7606C10.8555 47.4573 9.40922 44.9932 9.40922 42.32L9.40922 31.7743C9.40922 26.097 15.554 22.5478 20.4717 25.3845L29.7402 30.731C32.0239 32.0484 33.431 34.4844 33.431 37.1208L33.431 47.4953Z" fill="#F2F8FF"/>
<path d="M33.431 47.4953C33.431 53.1269 27.3751 56.6814 22.4581 53.9359L13.1896 48.7606C10.8555 47.4573 9.40922 44.9932 9.40922 42.32L9.40922 31.7743C9.40922 26.097 15.554 22.5478 20.4717 25.3845L29.7402 30.731C32.0239 32.0484 33.431 34.4844 33.431 37.1208L33.431 47.4953Z" fill="#F2F8FF"/>
<path d="M33.431 47.4953C33.431 53.1269 27.3751 56.6814 22.4581 53.9359L13.1896 48.7606C10.8555 47.4573 9.40922 44.9932 9.40922 42.32L9.40922 31.7743C9.40922 26.097 15.554 22.5478 20.4717 25.3845L29.7402 30.731C32.0239 32.0484 33.431 34.4844 33.431 37.1208L33.431 47.4953Z" fill="#F2F8FF"/>
<path d="M33.431 47.4953C33.431 53.1269 27.3751 56.6814 22.4581 53.9359L13.1896 48.7606C10.8555 47.4573 9.40922 44.9932 9.40922 42.32L9.40922 31.7743C9.40922 26.097 15.554 22.5478 20.4717 25.3845L29.7402 30.731C32.0239 32.0484 33.431 34.4844 33.431 37.1208L33.431 47.4953Z" fill="#F2F8FF"/>
</g>
</g>
</svg>
